# xmcd CD database file
#
# Track frame offsets:
#	150
#	3767
#	25935
#	47615
#
# Disc length: 928 seconds
#
# Revision: 0
# Processed by: cddbd v1.5.1PL0 Copyright (c) Steve Scherf et al.
# Submitted via: CDex 1.50
#
DISCID=20039e04
DTITLE=牧島有希 - センチメンタルジャーニー 保坂美由紀_一瞬の永遠
DYEAR=1900
DGENRE=Anime
TTITLE0=一瞬の永遠〜Prologue〜
TTITLE1=一瞬の永遠
TTITLE2=My sweet memories〜一瞬の永遠〜
TTITLE3=一瞬の永遠(オリジナル・カラオケ)
EXTD=
EXTT0=
EXTT1=
EXTT2=
EXTT3=
PLAYORDER=
